<svg width="13" height="10" viewBox="0 0 13 10" fill="none" xmlns="http://www.w3.org/2000/svg">
<path d="M5.87308 2.43921C4.76579 2.5183 3.92543 2.85444 3.35201 3.44763C2.77859 4.02105 2.54132 4.80209 2.64018 5.79074H2.9961C3.13451 5.35574 3.50031 5.13823 4.0935 5.13823C4.62738 5.13823 5.09205 5.34585 5.48751 5.76108C5.88297 6.17632 6.0807 6.72008 6.0807 7.39236C6.0807 8.12397 5.84342 8.71716 5.36887 9.17194C4.89432 9.62672 4.27146 9.85411 3.50031 9.85411C2.53143 9.85411 1.78005 9.4982 1.24618 8.78637C0.712307 8.05476 0.44537 7.09577 0.44537 5.90938C0.44537 4.46595 0.880378 3.22024 1.75039 2.17227C2.64018 1.10452 4.01441 0.511329 5.87308 0.392691V2.43921ZM12.5762 2.43921C11.4689 2.5183 10.6285 2.85444 10.0551 3.44763C9.48167 4.02105 9.23451 4.80209 9.3136 5.79074H9.66952C9.80793 5.35574 10.1836 5.13823 10.7966 5.13823C11.3305 5.13823 11.7951 5.34585 12.1906 5.76108C12.586 6.17632 12.7838 6.72008 12.7838 7.39236C12.7838 8.12397 12.5465 8.71716 12.0719 9.17194C11.5974 9.62672 10.9745 9.85411 10.2034 9.85411C9.21473 9.85411 8.45347 9.4982 7.9196 8.78637C7.4055 8.05476 7.14845 7.09577 7.14845 5.90938C7.14845 4.46595 7.58345 3.22024 8.45347 2.17227C9.34326 1.10452 10.7175 0.511329 12.5762 0.392691V2.43921Z" fill="white"/>
</svg>
