<svg width="21" height="22" viewBox="0 0 21 22" fill="none" xmlns="http://www.w3.org/2000/svg">
<circle cx="10.4667" cy="11.3251" r="10.4667" fill="white"/>
<path d="M14.3904 7.2218L15.2576 12.1396C15.285 12.3006 15.2478 12.4659 15.1541 12.5997C15.0605 12.7335 14.9178 12.825 14.7572 12.8543C14.4247 12.9129 14.1011 12.6863 14.0425 12.3538L13.4341 8.90337L8.62332 15.7738C8.42976 16.0502 8.04001 16.119 7.76357 15.9254C7.48714 15.7318 7.41841 15.3421 7.61197 15.0656L12.4227 8.19521L8.97223 8.80362C8.6398 8.86224 8.31616 8.63563 8.25755 8.30319C8.22723 8.13124 8.26973 7.97009 8.35943 7.84199C8.44913 7.71388 8.58602 7.61883 8.75797 7.58851L13.6758 6.72137C13.8369 6.69306 14.0026 6.72987 14.1367 6.8237C14.2707 6.91753 14.3619 7.06071 14.3904 7.2218Z" fill="#1E51DE"/>
</svg>
