<svg width="52" height="51" viewBox="0 0 52 51" fill="none" xmlns="http://www.w3.org/2000/svg">
<circle cx="25.7227" cy="25.3086" r="25.3086" fill="#F8FAFC"/>
<circle cx="25.7227" cy="25.3086" r="24.9004" stroke="url(#paint0_linear_214_1254)" stroke-opacity="0.5" stroke-width="0.816406"/>
<path d="M32.2539 13.8789H19.1914C15.2727 13.8789 12.6602 15.8959 12.6602 20.6023V30.0149C12.6602 34.7213 15.2727 36.7383 19.1914 36.7383H32.2539C36.1727 36.7383 38.7852 34.7213 38.7852 30.0149V20.6023C38.7852 15.8959 36.1727 13.8789 32.2539 13.8789ZM32.8678 22.0679L28.7793 25.4296C27.9172 26.1423 26.8199 26.4919 25.7227 26.4919C24.6254 26.4919 23.5151 26.1423 22.666 25.4296L18.5775 22.0679C18.1595 21.7183 18.0942 21.0729 18.4207 20.6426C18.7603 20.2123 19.3743 20.1316 19.7923 20.4812L23.8808 23.8429C24.8736 24.6632 26.5587 24.6632 27.5514 23.8429L31.64 20.4812C32.058 20.1316 32.685 20.1989 33.0115 20.6426C33.3512 21.0729 33.2858 21.7183 32.8678 22.0679Z" fill="#0066FF"/>
<defs>
<linearGradient id="paint0_linear_214_1254" x1="25.7227" y1="0" x2="25.7227" y2="50.6172" gradientUnits="userSpaceOnUse">
<stop stop-color="white"/>
<stop offset="1" stop-color="white" stop-opacity="0"/>
</linearGradient>
</defs>
</svg>
