<svg width="24" height="24" viewBox="0 0 24 24" fill="none" xmlns="http://www.w3.org/2000/svg">
<circle cx="12.1976" cy="11.7698" r="11.4925" fill="#0066FF"/>
<path d="M15.3915 6.66211H9.00681C7.0914 6.66211 5.81445 7.61982 5.81445 9.85447V14.3238C5.81445 16.5584 7.0914 17.5161 9.00681 17.5161H15.3915C17.3069 17.5161 18.5839 16.5584 18.5839 14.3238V9.85447C18.5839 7.61982 17.3069 6.66211 15.3915 6.66211ZM15.6916 10.5504L13.6932 12.1466C13.2718 12.485 12.7355 12.651 12.1992 12.651C11.6629 12.651 11.1202 12.485 10.7051 12.1466L8.70673 10.5504C8.50242 10.3844 8.47049 10.0779 8.63011 9.87362C8.79612 9.66931 9.0962 9.631 9.30051 9.797L11.2989 11.3932C11.7842 11.7827 12.6078 11.7827 13.093 11.3932L15.0914 9.797C15.2958 9.631 15.6022 9.66293 15.7618 9.87362C15.9278 10.0779 15.8959 10.3844 15.6916 10.5504Z" fill="#DEEBFF"/>
</svg>
