<svg width="72" height="73" viewBox="0 0 72 73" fill="none" xmlns="http://www.w3.org/2000/svg">
<rect x="0.345924" y="1.26096" width="70.5015" height="70.5015" rx="35.2508" fill="#000024"/>
<rect x="0.345924" y="1.26096" width="70.5015" height="70.5015" rx="35.2508" stroke="white" stroke-width="0.691847"/>
<path d="M48.7523 34.9389C48.423 29.1016 44.0974 24.2373 38.32 23.2494C38.2302 22.0969 37.2723 21.1689 36.0899 21.1689H34.5932C33.4107 21.1689 32.4678 22.082 32.363 23.2344C26.5557 24.1923 22.2002 29.0717 21.8709 34.9389C20.8082 35.1185 20 36.0315 20 37.1391V38.6358C20 39.8781 21.0028 40.8809 22.2451 40.8809H23.7418C24.9841 40.8809 25.9869 39.8781 25.9869 38.6358V37.1391C25.9869 36.0315 25.1787 35.1185 24.116 34.9389C24.4303 30.2691 27.8579 26.3925 32.4379 25.4945C32.6923 26.4524 33.5604 27.1559 34.5932 27.1559H36.0899C37.1226 27.1559 37.9758 26.4524 38.2452 25.5095C42.7953 26.4225 46.1928 30.299 46.5072 34.9389C45.4445 35.1185 44.6362 36.0315 44.6362 37.1391V38.6358C44.6362 39.8781 45.6391 40.8809 46.8813 40.8809H48.3781C49.6204 40.8809 50.6232 39.8781 50.6232 38.6358V37.1391C50.6232 36.0315 49.8149 35.1035 48.7523 34.9389Z" fill="white"/>
<path d="M40.9585 43.6951L38.5039 45.8653H32.1428L29.6881 43.6951C28.2662 42.5276 28.2662 41.6296 29.3439 40.2526L33.6694 34.7745C33.9688 34.4003 34.313 34.1459 34.7022 34.0112C35.1063 33.8765 35.5404 33.8765 35.9595 34.0112C36.3336 34.1459 36.6779 34.4003 36.9922 34.7745L41.3028 40.2376C42.3954 41.6146 42.3355 42.4677 40.9585 43.6951Z" fill="white"/>
<path d="M37.2961 51.8548H33.4196C32.0426 51.8548 31.0098 50.7323 31.2793 49.5349L31.7432 47.4544C31.8331 47.0354 32.2072 46.751 32.6263 46.751H38.0894C38.5085 46.751 38.8677 47.0354 38.9725 47.4544L39.4365 49.5349C39.7208 50.8071 38.7629 51.8548 37.2961 51.8548Z" fill="white"/>
</svg>
