<svg width="965" height="593" viewBox="0 0 965 593" fill="none" xmlns="http://www.w3.org/2000/svg">
<path d="M740.412 230.512H768.503L740.695 387.817H803.72L796.415 413.105H708.128L740.438 230.512H740.412Z" fill="#000AFF"/>
<path d="M716.461 230.512L701.001 413.105H672.91L676.28 385.013H659.713L653.256 413.105H625.165L674.325 230.512H716.461ZM679.367 359.726L692.28 255.799H689.476L665.604 359.726H679.367Z" fill="#000AFF"/>
<path d="M580.198 230.51H620.92C627.094 230.51 631.982 231.436 635.532 233.314C639.082 235.192 641.629 237.713 643.121 240.903C644.793 244.093 645.642 247.823 645.642 252.144C645.642 256.466 645.179 260.762 644.227 265.624L633.268 327.415C631.956 334.154 629.512 339.222 625.962 342.592C622.593 345.782 617.448 347.84 610.502 348.766C614.618 349.898 617.911 352.033 620.329 355.223C622.773 358.207 623.802 362.066 623.416 366.747L620.895 413.103H592.803L595.324 366.747C595.505 364.689 595.144 362.992 594.193 361.68C593.267 360.368 591.749 359.699 589.691 359.699H585.472L575.928 413.077H547.837L580.147 230.484L580.198 230.51ZM596.765 334.437C598.823 334.437 600.598 333.769 602.09 332.482C603.762 331.17 604.817 329.472 605.177 327.415L616.419 262.794C616.804 260.736 616.419 259.039 615.287 257.727C614.361 256.415 612.843 255.772 610.785 255.772H603.762L589.717 334.437H596.739H596.765Z" fill="#000AFF"/>
<path d="M484.588 230.512L457.629 381.309C457.243 383.341 457.526 384.988 458.478 386.3C459.609 387.586 461.204 388.229 463.262 388.229C465.32 388.229 467.095 387.586 468.587 386.3C470.259 385.013 471.314 383.341 471.674 381.309L498.634 230.512H526.725L499.765 381.309C499.38 383.341 499.663 384.988 500.614 386.3C501.746 387.586 503.341 388.229 505.399 388.229C507.457 388.229 509.232 387.586 510.724 386.3C512.396 385.013 513.451 383.341 513.811 381.309L540.77 230.512H568.862L542.185 378.557C541.439 383.341 540.127 387.869 538.249 392.113C536.372 396.178 533.953 399.779 530.944 402.918C527.96 406.056 524.384 408.551 520.268 410.378C516.332 412.23 511.83 413.156 506.788 413.156C499.663 413.156 494.055 411.587 489.939 408.449C485.823 405.31 483.379 401.889 482.633 398.21C480.575 401.889 476.819 405.31 471.391 408.449C466.143 411.587 459.97 413.156 452.844 413.156C447.776 413.156 443.583 412.23 440.213 410.378C436.843 408.526 434.219 406.056 432.341 402.918C430.463 399.779 429.332 396.178 428.971 392.113C428.791 387.869 429.074 383.341 429.82 378.557L456.497 230.512H484.588Z" fill="#000AFF"/>
<path d="M391.741 230.512H445.12L443.422 255.799H415.33L407.742 297.936H433.029L428.527 323.223H403.24L391.998 387.843H420.09L412.784 413.13H359.405L391.715 230.537L391.741 230.512Z" fill="#000AFF"/>
<path d="M247.748 247.359L247.78 247.233L247.711 247.123L187.31 149.729L186.89 149.053L186.751 149.837L168.094 254.49H146.256L169.936 121.724L169.936 121.724L175.609 89.8402L192.605 117.38L192.605 117.38L265.046 234.299L265.129 234.433L265.287 234.442C274.151 234.973 281.174 242.344 281.181 251.361C281.174 260.73 273.57 268.304 264.225 268.304C254.875 268.304 247.268 260.697 247.268 251.348C247.268 249.981 247.42 248.643 247.748 247.359Z" fill="#000AFF" stroke="#000AFF" stroke-width="0.609849"/>
<path d="M285.193 267.301L338.129 352.993L338.549 353.672L338.689 352.886L360.356 231.383H382.168L355.504 380.999L349.83 412.883L332.809 385.342L266.318 277.677C274.018 277.057 280.8 273.115 285.193 267.301Z" fill="#000AFF" stroke="#000AFF" stroke-width="0.609849"/>
<path d="M264.222 277.227C278.499 277.227 290.101 265.651 290.101 251.348C290.101 237.045 278.525 225.469 264.222 225.469C249.919 225.469 238.343 237.045 238.343 251.348C238.343 265.651 249.919 277.227 264.222 277.227Z" stroke="#000AFF" stroke-width="2" stroke-miterlimit="10"/>
</svg>
