<svg width="284" height="140" viewBox="0 0 284 140" fill="none" xmlns="http://www.w3.org/2000/svg">
<path d="M256.325 61.0088H268.436L256.447 128.829H283.62L280.47 139.731H242.406L256.336 61.0088H256.325Z" fill="white"/>
<path d="M246 61.0088L239.334 139.731H227.223L228.676 127.62H221.534L218.75 139.731H206.639L227.833 61.0088H246ZM230.007 116.718L235.575 71.9111H234.366L224.073 116.718H230.007Z" fill="white"/>
<path d="M187.243 61.0111H204.8C207.462 61.0111 209.569 61.4104 211.1 62.22C212.63 63.0296 213.728 64.1165 214.371 65.4918C215.092 66.867 215.458 68.4752 215.458 70.3385C215.458 72.2017 215.259 74.0539 214.848 76.15L210.124 102.79C209.558 105.696 208.504 107.881 206.974 109.334C205.521 110.709 203.303 111.596 200.308 111.996C202.083 112.484 203.502 113.404 204.545 114.779C205.599 116.066 206.042 117.73 205.876 119.748L204.789 139.734H192.678L193.765 119.748C193.842 118.861 193.687 118.129 193.277 117.563C192.877 116.998 192.223 116.709 191.336 116.709H189.517L185.402 139.723H173.291L187.221 61L187.243 61.0111ZM194.386 105.818C195.273 105.818 196.038 105.53 196.682 104.975C197.402 104.409 197.857 103.677 198.012 102.79L202.859 74.9301C203.025 74.0428 202.859 73.3108 202.371 72.7452C201.972 72.1795 201.318 71.9023 200.43 71.9023H197.402L191.347 105.818H194.375H194.386Z" fill="white"/>
<path d="M146.024 61.0088L134.401 126.023C134.235 126.899 134.357 127.609 134.767 128.175C135.255 128.729 135.943 129.007 136.83 129.007C137.717 129.007 138.483 128.729 139.126 128.175C139.847 127.62 140.302 126.899 140.457 126.023L152.08 61.0088H164.191L152.568 126.023C152.402 126.899 152.524 127.609 152.934 128.175C153.422 128.729 154.11 129.007 154.997 129.007C155.884 129.007 156.649 128.729 157.293 128.175C158.014 127.62 158.468 126.899 158.624 126.023L170.247 61.0088H182.358L170.857 124.836C170.535 126.899 169.969 128.851 169.16 130.681C168.35 132.434 167.308 133.986 166.01 135.339C164.724 136.693 163.182 137.768 161.407 138.556C159.71 139.354 157.77 139.754 155.596 139.754C152.524 139.754 150.106 139.077 148.331 137.724C146.557 136.371 145.503 134.896 145.182 133.31C144.294 134.896 142.675 136.371 140.335 137.724C138.072 139.077 135.411 139.754 132.338 139.754C130.153 139.754 128.346 139.354 126.893 138.556C125.44 137.757 124.309 136.693 123.499 135.339C122.689 133.986 122.201 132.434 122.046 130.681C121.968 128.851 122.09 126.899 122.412 124.836L133.913 61.0088H146.024Z" fill="white"/>
<path d="M105.99 61.0088H129.003L128.271 71.9111H116.16L112.888 90.0778H123.791L121.85 100.98H110.948L106.101 128.84H118.212L115.062 139.742H92.0488L105.979 61.0199L105.99 61.0088Z" fill="white"/>
<path d="M58.4597 69.9941C58.4597 74.1088 55.1213 77.4361 51.0177 77.4361C46.9141 77.4361 43.5758 74.0977 43.5758 69.9941C43.5758 69.3952 43.6424 68.8074 43.7865 68.2418L17.7453 26.252L9.68228 71.4803H0L10.2368 14.0853L12.7433 0L20.2518 12.1666L51.4836 62.5744C55.3764 62.8073 58.4597 66.0458 58.4597 70.0052V69.9941Z" fill="white"/>
<path d="M92.3581 61.2549L82.9975 113.748L60.0728 76.6378C58.1652 79.2553 55.1374 81.0187 51.6992 81.2294L80.4799 127.833L87.9994 140L90.506 125.914L102.029 61.2549H92.3471H92.3581Z" fill="white"/>
<path d="M51.0187 81.1516C57.1741 81.1516 62.1761 76.1608 62.1761 69.9943C62.1761 63.8278 57.1852 58.8369 51.0187 58.8369C44.8522 58.8369 39.8613 63.8278 39.8613 69.9943C39.8613 76.1608 44.8522 81.1516 51.0187 81.1516Z" stroke="white" stroke-width="1.66112" stroke-miterlimit="10"/>
</svg>
