<svg width="455" height="485" viewBox="0 0 455 485" fill="none" xmlns="http://www.w3.org/2000/svg">
<path d="M210.856 238.359L210.888 238.233L210.82 238.123L150.418 140.729L149.999 140.053L149.859 140.837L131.202 245.49H109.364L133.044 112.724L133.044 112.724L138.718 80.8402L155.714 108.38L155.714 108.38L228.154 225.299L228.237 225.433L228.395 225.442C237.26 225.973 244.283 233.344 244.289 242.361C244.282 251.73 236.679 259.304 227.333 259.304C217.983 259.304 210.377 251.697 210.377 242.348C210.377 240.981 210.529 239.643 210.856 238.359Z" fill="#000AFF" stroke="#000AFF" stroke-width="0.609849"/>
<path d="M248.301 258.301L301.238 343.993L301.657 344.672L301.797 343.886L323.464 222.383H345.276L318.612 371.999L312.938 403.883L295.917 376.342L229.427 268.677C237.127 268.057 243.908 264.115 248.301 258.301Z" fill="#000AFF" stroke="#000AFF" stroke-width="0.609849"/>
<path d="M227.33 268.227C241.607 268.227 253.209 256.651 253.209 242.348C253.209 228.045 241.633 216.469 227.33 216.469C213.027 216.469 201.451 228.045 201.451 242.348C201.451 256.651 213.027 268.227 227.33 268.227Z" stroke="#000AFF" stroke-width="2" stroke-miterlimit="10"/>
</svg>
