<svg width="455" height="485" viewBox="0 0 455 485" fill="none" xmlns="http://www.w3.org/2000/svg">
<path d="M244.594 242.348C244.594 251.892 236.851 259.609 227.333 259.609C217.815 259.609 210.072 251.866 210.072 242.348C210.072 240.959 210.226 239.595 210.561 238.283L150.159 140.89L131.458 245.795H109L132.744 112.67L138.558 80L155.973 108.22L228.413 225.138C237.443 225.678 244.594 233.19 244.594 242.373V242.348Z" fill="white"/>
<path d="M323.209 222.078L301.497 343.832L248.324 257.758C243.9 263.829 236.877 267.919 228.902 268.408L295.658 376.503L313.099 404.723L318.913 372.052L345.64 222.078H323.183H323.209Z" fill="white"/>
<path d="M227.33 268.227C241.607 268.227 253.209 256.651 253.209 242.348C253.209 228.045 241.633 216.469 227.33 216.469C213.027 216.469 201.451 228.045 201.451 242.348C201.451 256.651 213.027 268.227 227.33 268.227Z" stroke="white" stroke-width="2" stroke-miterlimit="10"/>
</svg>
