<svg width="47" height="47" viewBox="0 0 47 47" fill="none" xmlns="http://www.w3.org/2000/svg">
<circle cx="23.1627" cy="23.1627" r="23.1627" fill="#0066FF"/>
<path d="M27.9756 14.7559H17.9385C14.9273 14.7559 12.9199 16.2614 12.9199 19.7744V26.8004C12.9199 30.3134 14.9273 31.8189 17.9385 31.8189H27.9756C30.9867 31.8189 32.9941 30.3134 32.9941 26.8004V19.7744C32.9941 16.2614 30.9867 14.7559 27.9756 14.7559ZM28.4473 20.8684L25.3057 23.3777C24.6432 23.9097 23.8001 24.1707 22.957 24.1707C22.1139 24.1707 21.2607 23.9097 20.6083 23.3777L17.4667 20.8684C17.1455 20.6075 17.0954 20.1257 17.3463 19.8045C17.6072 19.4833 18.079 19.4231 18.4002 19.6841L21.5418 22.1933C22.3046 22.8056 23.5994 22.8056 24.3622 22.1933L27.5038 19.6841C27.825 19.4231 28.3068 19.4733 28.5577 19.8045C28.8187 20.1257 28.7685 20.6075 28.4473 20.8684Z" fill="white"/>
</svg>
